<?xml version="1.0" encoding="UTF-8" ?>
<svg version="1.1" width="512" height="512" xmlns="http://www.w3.org/2000/svg" shape-rendering="crispEdges">
<rect x="64" y="0" width="32" height="32" fill="#FFFFFF" />
<rect x="96" y="0" width="32" height="32" fill="#FFFFFF" />
<rect x="128" y="0" width="32" height="32" fill="#FFFFFF" />
<rect x="160" y="0" width="32" height="32" fill="#FFFFFF" />
<rect x="192" y="0" width="32" height="32" fill="#FFFFFF" />
<rect x="224" y="0" width="32" height="32" fill="#FFFFFF" />
<rect x="256" y="0" width="32" height="32" fill="#FFFFFF" />
<rect x="288" y="0" width="32" height="32" fill="#FFFFFF" />
<rect x="320" y="0" width="32" height="32" fill="#FFFFFF" />
<rect x="352" y="0" width="32" height="32" fill="#FFFFFF" />
<rect x="384" y="0" width="32" height="32" fill="#FFFFFF" />
<rect x="416" y="0" width="32" height="32" fill="#FFFFFF" />
<rect x="32" y="32" width="32" height="32" fill="#FFFFFF" />
<rect x="64" y="32" width="32" height="32" fill="#110F2B" />
<rect x="96" y="32" width="32" height="32" fill="#110F2B" />
<rect x="128" y="32" width="32" height="32" fill="#110F2B" />
<rect x="160" y="32" width="32" height="32" fill="#110F2B" />
<rect x="192" y="32" width="32" height="32" fill="#110F2B" />
<rect x="224" y="32" width="32" height="32" fill="#26266E" />
<rect x="256" y="32" width="32" height="32" fill="#110F2B" />
<rect x="288" y="32" width="32" height="32" fill="#110F2B" />
<rect x="320" y="32" width="32" height="32" fill="#110F2B" />
<rect x="352" y="32" width="32" height="32" fill="#110F2B" />
<rect x="384" y="32" width="32" height="32" fill="#110F2B" />
<rect x="416" y="32" width="32" height="32" fill="#110F2B" />
<rect x="448" y="32" width="32" height="32" fill="#FFFFFF" />
<rect x="0" y="64" width="32" height="32" fill="#FFFFFF" />
<rect x="32" y="64" width="32" height="32" fill="#110F2B" />
<rect x="64" y="64" width="32" height="32" fill="#110F2B" />
<rect x="96" y="64" width="32" height="32" fill="#6C68BA" />
<rect x="128" y="64" width="32" height="32" fill="#110F2B" />
<rect x="160" y="64" width="32" height="32" fill="#110F2B" />
<rect x="192" y="64" width="32" height="32" fill="#26266E" />
<rect x="224" y="64" width="32" height="32" fill="#110F2B" />
<rect x="256" y="64" width="32" height="32" fill="#26266E" />
<rect x="288" y="64" width="32" height="32" fill="#110F2B" />
<rect x="320" y="64" width="32" height="32" fill="#110F2B" />
<rect x="352" y="64" width="32" height="32" fill="#110F2B" />
<rect x="384" y="64" width="32" height="32" fill="#110F2B" />
<rect x="416" y="64" width="32" height="32" fill="#110F2B" />
<rect x="448" y="64" width="32" height="32" fill="#110F2B" />
<rect x="480" y="64" width="32" height="32" fill="#FFFFFF" />
<rect x="0" y="96" width="32" height="32" fill="#FFFFFF" />
<rect x="32" y="96" width="32" height="32" fill="#110F2B" />
<rect x="64" y="96" width="32" height="32" fill="#6C68BA" />
<rect x="96" y="96" width="32" height="32" fill="#6C68BA" />
<rect x="128" y="96" width="32" height="32" fill="#6C68BA" />
<rect x="160" y="96" width="32" height="32" fill="#110F2B" />
<rect x="192" y="96" width="32" height="32" fill="#110F2B" />
<rect x="224" y="96" width="32" height="32" fill="#FFFFFF" />
<rect x="256" y="96" width="32" height="32" fill="#FFFFFF" />
<rect x="288" y="96" width="32" height="32" fill="#110F2B" />
<rect x="320" y="96" width="32" height="32" fill="#110F2B" />
<rect x="352" y="96" width="32" height="32" fill="#110F2B" />
<rect x="384" y="96" width="32" height="32" fill="#110F2B" />
<rect x="416" y="96" width="32" height="32" fill="#110F2B" />
<rect x="448" y="96" width="32" height="32" fill="#110F2B" />
<rect x="480" y="96" width="32" height="32" fill="#FFFFFF" />
<rect x="0" y="128" width="32" height="32" fill="#FFFFFF" />
<rect x="32" y="128" width="32" height="32" fill="#110F2B" />
<rect x="64" y="128" width="32" height="32" fill="#110F2B" />
<rect x="96" y="128" width="32" height="32" fill="#6C68BA" />
<rect x="128" y="128" width="32" height="32" fill="#110F2B" />
<rect x="160" y="128" width="32" height="32" fill="#110F2B" />
<rect x="192" y="128" width="32" height="32" fill="#110F2B" />
<rect x="224" y="128" width="32" height="32" fill="#FFFFFF" />
<rect x="256" y="128" width="32" height="32" fill="#FFFFFF" />
<rect x="288" y="128" width="32" height="32" fill="#110F2B" />
<rect x="320" y="128" width="32" height="32" fill="#110F2B" />
<rect x="352" y="128" width="32" height="32" fill="#26266E" />
<rect x="384" y="128" width="32" height="32" fill="#110F2B" />
<rect x="416" y="128" width="32" height="32" fill="#110F2B" />
<rect x="448" y="128" width="32" height="32" fill="#110F2B" />
<rect x="480" y="128" width="32" height="32" fill="#FFFFFF" />
<rect x="0" y="160" width="32" height="32" fill="#FFFFFF" />
<rect x="32" y="160" width="32" height="32" fill="#110F2B" />
<rect x="64" y="160" width="32" height="32" fill="#110F2B" />
<rect x="96" y="160" width="32" height="32" fill="#110F2B" />
<rect x="128" y="160" width="32" height="32" fill="#110F2B" />
<rect x="160" y="160" width="32" height="32" fill="#110F2B" />
<rect x="192" y="160" width="32" height="32" fill="#FFFFFF" />
<rect x="224" y="160" width="32" height="32" fill="#110F2B" />
<rect x="256" y="160" width="32" height="32" fill="#26266E" />
<rect x="288" y="160" width="32" height="32" fill="#FFFFFF" />
<rect x="320" y="160" width="32" height="32" fill="#C7424F" />
<rect x="352" y="160" width="32" height="32" fill="#26266E" />
<rect x="384" y="160" width="32" height="32" fill="#26266E" />
<rect x="416" y="160" width="32" height="32" fill="#110F2B" />
<rect x="448" y="160" width="32" height="32" fill="#110F2B" />
<rect x="480" y="160" width="32" height="32" fill="#FFFFFF" />
<rect x="0" y="192" width="32" height="32" fill="#FFFFFF" />
<rect x="32" y="192" width="32" height="32" fill="#110F2B" />
<rect x="64" y="192" width="32" height="32" fill="#110F2B" />
<rect x="96" y="192" width="32" height="32" fill="#110F2B" />
<rect x="128" y="192" width="32" height="32" fill="#110F2B" />
<rect x="160" y="192" width="32" height="32" fill="#FFFFFF" />
<rect x="192" y="192" width="32" height="32" fill="#FFFFFF" />
<rect x="224" y="192" width="32" height="32" fill="#110F2B" />
<rect x="256" y="192" width="32" height="32" fill="#26266E" />
<rect x="288" y="192" width="32" height="32" fill="#FFFFFF" />
<rect x="320" y="192" width="32" height="32" fill="#F5EB86" />
<rect x="352" y="192" width="32" height="32" fill="#C7424F" />
<rect x="384" y="192" width="32" height="32" fill="#110F2B" />
<rect x="416" y="192" width="32" height="32" fill="#110F2B" />
<rect x="448" y="192" width="32" height="32" fill="#110F2B" />
<rect x="480" y="192" width="32" height="32" fill="#FFFFFF" />
<rect x="0" y="224" width="32" height="32" fill="#FFFFFF" />
<rect x="32" y="224" width="32" height="32" fill="#6C68BA" />
<rect x="64" y="224" width="32" height="32" fill="#110F2B" />
<rect x="96" y="224" width="32" height="32" fill="#110F2B" />
<rect x="128" y="224" width="32" height="32" fill="#FFFFFF" />
<rect x="160" y="224" width="32" height="32" fill="#FFFFFF" />
<rect x="192" y="224" width="32" height="32" fill="#110F2B" />
<rect x="224" y="224" width="32" height="32" fill="#26266E" />
<rect x="256" y="224" width="32" height="32" fill="#26266E" />
<rect x="288" y="224" width="32" height="32" fill="#110F2B" />
<rect x="320" y="224" width="32" height="32" fill="#FFFFFF" />
<rect x="352" y="224" width="32" height="32" fill="#F5EB86" />
<rect x="384" y="224" width="32" height="32" fill="#C7424F" />
<rect x="416" y="224" width="32" height="32" fill="#110F2B" />
<rect x="448" y="224" width="32" height="32" fill="#110F2B" />
<rect x="480" y="224" width="32" height="32" fill="#FFFFFF" />
<rect x="0" y="256" width="32" height="32" fill="#FFFFFF" />
<rect x="32" y="256" width="32" height="32" fill="#6C68BA" />
<rect x="64" y="256" width="32" height="32" fill="#6C68BA" />
<rect x="96" y="256" width="32" height="32" fill="#FFFFFF" />
<rect x="128" y="256" width="32" height="32" fill="#110F2B" />
<rect x="160" y="256" width="32" height="32" fill="#FFFFFF" />
<rect x="192" y="256" width="32" height="32" fill="#110F2B" />
<rect x="224" y="256" width="32" height="32" fill="#26266E" />
<rect x="256" y="256" width="32" height="32" fill="#26266E" />
<rect x="288" y="256" width="32" height="32" fill="#110F2B" />
<rect x="320" y="256" width="32" height="32" fill="#FFFFFF" />
<rect x="352" y="256" width="32" height="32" fill="#77C95E" />
<rect x="384" y="256" width="32" height="32" fill="#F5EB86" />
<rect x="416" y="256" width="32" height="32" fill="#C7424F" />
<rect x="448" y="256" width="32" height="32" fill="#110F2B" />
<rect x="480" y="256" width="32" height="32" fill="#FFFFFF" />
<rect x="0" y="288" width="32" height="32" fill="#FFFFFF" />
<rect x="32" y="288" width="32" height="32" fill="#6C68BA" />
<rect x="64" y="288" width="32" height="32" fill="#FFFFFF" />
<rect x="96" y="288" width="32" height="32" fill="#110F2B" />
<rect x="128" y="288" width="32" height="32" fill="#FFFFFF" />
<rect x="160" y="288" width="32" height="32" fill="#110F2B" />
<rect x="192" y="288" width="32" height="32" fill="#26266E" />
<rect x="224" y="288" width="32" height="32" fill="#26266E" />
<rect x="256" y="288" width="32" height="32" fill="#110F2B" />
<rect x="288" y="288" width="32" height="32" fill="#110F2B" />
<rect x="320" y="288" width="32" height="32" fill="#26266E" />
<rect x="352" y="288" width="32" height="32" fill="#FFFFFF" />
<rect x="384" y="288" width="32" height="32" fill="#77C95E" />
<rect x="416" y="288" width="32" height="32" fill="#F5EB86" />
<rect x="448" y="288" width="32" height="32" fill="#C7424F" />
<rect x="480" y="288" width="32" height="32" fill="#FFFFFF" />
<rect x="0" y="320" width="32" height="32" fill="#FFFFFF" />
<rect x="32" y="320" width="32" height="32" fill="#FFFFFF" />
<rect x="64" y="320" width="32" height="32" fill="#110F2B" />
<rect x="96" y="320" width="32" height="32" fill="#110F2B" />
<rect x="128" y="320" width="32" height="32" fill="#FFFFFF" />
<rect x="160" y="320" width="32" height="32" fill="#110F2B" />
<rect x="192" y="320" width="32" height="32" fill="#26266E" />
<rect x="224" y="320" width="32" height="32" fill="#26266E" />
<rect x="256" y="320" width="32" height="32" fill="#110F2B" />
<rect x="288" y="320" width="32" height="32" fill="#110F2B" />
<rect x="320" y="320" width="32" height="32" fill="#26266E" />
<rect x="352" y="320" width="32" height="32" fill="#FFFFFF" />
<rect x="384" y="320" width="32" height="32" fill="#7185FF" />
<rect x="416" y="320" width="32" height="32" fill="#77C95E" />
<rect x="448" y="320" width="32" height="32" fill="#F5EB86" />
<rect x="480" y="320" width="32" height="32" fill="#FFFFFF" />
<rect x="0" y="352" width="32" height="32" fill="#FFFFFF" />
<rect x="32" y="352" width="32" height="32" fill="#110F2B" />
<rect x="64" y="352" width="32" height="32" fill="#110F2B" />
<rect x="96" y="352" width="32" height="32" fill="#110F2B" />
<rect x="128" y="352" width="32" height="32" fill="#FFFFFF" />
<rect x="160" y="352" width="32" height="32" fill="#FFFFFF" />
<rect x="192" y="352" width="32" height="32" fill="#FFFFFF" />
<rect x="224" y="352" width="32" height="32" fill="#FFFFFF" />
<rect x="256" y="352" width="32" height="32" fill="#FFFFFF" />
<rect x="288" y="352" width="32" height="32" fill="#FFFFFF" />
<rect x="320" y="352" width="32" height="32" fill="#FFFFFF" />
<rect x="352" y="352" width="32" height="32" fill="#FFFFFF" />
<rect x="384" y="352" width="32" height="32" fill="#110F2B" />
<rect x="416" y="352" width="32" height="32" fill="#7185FF" />
<rect x="448" y="352" width="32" height="32" fill="#77C95E" />
<rect x="480" y="352" width="32" height="32" fill="#FFFFFF" />
<rect x="0" y="384" width="32" height="32" fill="#FFFFFF" />
<rect x="32" y="384" width="32" height="32" fill="#110F2B" />
<rect x="64" y="384" width="32" height="32" fill="#110F2B" />
<rect x="96" y="384" width="32" height="32" fill="#110F2B" />
<rect x="128" y="384" width="32" height="32" fill="#110F2B" />
<rect x="160" y="384" width="32" height="32" fill="#110F2B" />
<rect x="192" y="384" width="32" height="32" fill="#110F2B" />
<rect x="224" y="384" width="32" height="32" fill="#6C68BA" />
<rect x="256" y="384" width="32" height="32" fill="#110F2B" />
<rect x="288" y="384" width="32" height="32" fill="#110F2B" />
<rect x="320" y="384" width="32" height="32" fill="#110F2B" />
<rect x="352" y="384" width="32" height="32" fill="#110F2B" />
<rect x="384" y="384" width="32" height="32" fill="#26266E" />
<rect x="416" y="384" width="32" height="32" fill="#110F2B" />
<rect x="448" y="384" width="32" height="32" fill="#7185FF" />
<rect x="480" y="384" width="32" height="32" fill="#FFFFFF" />
<rect x="0" y="416" width="32" height="32" fill="#FFFFFF" />
<rect x="32" y="416" width="32" height="32" fill="#110F2B" />
<rect x="64" y="416" width="32" height="32" fill="#26266E" />
<rect x="96" y="416" width="32" height="32" fill="#110F2B" />
<rect x="128" y="416" width="32" height="32" fill="#110F2B" />
<rect x="160" y="416" width="32" height="32" fill="#110F2B" />
<rect x="192" y="416" width="32" height="32" fill="#6C68BA" />
<rect x="224" y="416" width="32" height="32" fill="#110F2B" />
<rect x="256" y="416" width="32" height="32" fill="#6C68BA" />
<rect x="288" y="416" width="32" height="32" fill="#110F2B" />
<rect x="320" y="416" width="32" height="32" fill="#110F2B" />
<rect x="352" y="416" width="32" height="32" fill="#110F2B" />
<rect x="384" y="416" width="32" height="32" fill="#110F2B" />
<rect x="416" y="416" width="32" height="32" fill="#110F2B" />
<rect x="448" y="416" width="32" height="32" fill="#110F2B" />
<rect x="480" y="416" width="32" height="32" fill="#FFFFFF" />
<rect x="32" y="448" width="32" height="32" fill="#FFFFFF" />
<rect x="64" y="448" width="32" height="32" fill="#110F2B" />
<rect x="96" y="448" width="32" height="32" fill="#110F2B" />
<rect x="128" y="448" width="32" height="32" fill="#110F2B" />
<rect x="160" y="448" width="32" height="32" fill="#110F2B" />
<rect x="192" y="448" width="32" height="32" fill="#110F2B" />
<rect x="224" y="448" width="32" height="32" fill="#110F2B" />
<rect x="256" y="448" width="32" height="32" fill="#110F2B" />
<rect x="288" y="448" width="32" height="32" fill="#110F2B" />
<rect x="320" y="448" width="32" height="32" fill="#110F2B" />
<rect x="352" y="448" width="32" height="32" fill="#110F2B" />
<rect x="384" y="448" width="32" height="32" fill="#110F2B" />
<rect x="416" y="448" width="32" height="32" fill="#110F2B" />
<rect x="448" y="448" width="32" height="32" fill="#FFFFFF" />
<rect x="64" y="480" width="32" height="32" fill="#FFFFFF" />
<rect x="96" y="480" width="32" height="32" fill="#FFFFFF" />
<rect x="128" y="480" width="32" height="32" fill="#FFFFFF" />
<rect x="160" y="480" width="32" height="32" fill="#FFFFFF" />
<rect x="192" y="480" width="32" height="32" fill="#FFFFFF" />
<rect x="224" y="480" width="32" height="32" fill="#FFFFFF" />
<rect x="256" y="480" width="32" height="32" fill="#FFFFFF" />
<rect x="288" y="480" width="32" height="32" fill="#FFFFFF" />
<rect x="320" y="480" width="32" height="32" fill="#FFFFFF" />
<rect x="352" y="480" width="32" height="32" fill="#FFFFFF" />
<rect x="384" y="480" width="32" height="32" fill="#FFFFFF" />
<rect x="416" y="480" width="32" height="32" fill="#FFFFFF" />
</svg>